<?xml version="1.0" encoding="utf-8"?>
<!-- Generator: Adobe Illustrator 24.1.1, SVG Export Plug-In . SVG Version: 6.00 Build 0)  -->
<svg version="1.1" id="Livello_1" xmlns="http://www.w3.org/2000/svg" xmlns:xlink="http://www.w3.org/1999/xlink" x="0px" y="0px"
	 viewBox="0 0 595.28 841.89" style="enable-background:new 0 0 595.28 841.89;" xml:space="preserve">
<style type="text/css">
	.st0{fill:#00E5D8;}
	.st1{fill:url(#SVGID_1_);}
	.st2{fill:#FEFEFE;}
</style>
<g>
	<path class="st0" d="M362.26,565.5c-2.35,0.95-4.84,1.41-7.25,2.14c-4.9,1.48-9.93,2.42-14.93,3.49c-2.87,0.62-5.83,0.78-8.72,1.34
		c-3.22,0.62-6.48,0.77-9.72,1.13c-3.9,0.43-7.83,0.51-11.77,0.55c-52.43,0.51-104.86,0.05-157.29,0.25c-1.3,0-1.44-0.41-1.44-1.53
		c0.02-125.88,0.02-251.76-0.01-377.64c0-1.25,0.31-1.54,1.55-1.54c52.49,0.03,104.97,0.01,157.46,0.07
		c4.18,0.01,8.39,0.21,12.57,0.68c3.4,0.39,6.8,0.74,10.19,1.21c2.87,0.4,5.71,0.97,8.56,1.46c5.24,0.9,10.33,2.46,15.51,3.62
		c2.81,0.63,5.51,1.72,8.25,2.62c7.59,2.48,14.88,5.67,22.13,9c10.21,4.69,19.7,10.58,28.93,16.92c3.49,2.4,6.77,5.11,10.04,7.81
		c2.92,2.42,5.65,5.08,8.55,7.52c4.03,3.41,7.49,7.38,11.08,11.2c4.99,5.3,9.6,10.95,13.82,16.89c3.92,5.52,7.66,11.16,10.88,17.13
		c1.41,2.62,3.01,5.14,4.31,7.81c2.58,5.31,5.13,10.64,7.19,16.18c1.14,3.07,2.37,6.11,3.37,9.23c1.58,4.94,3.24,9.86,4.39,14.93
		c0.96,4.23,2.11,8.41,2.8,12.69c0.6,3.75,1.18,7.51,1.67,11.28c0.28,2.19,0.26,4.42,0.53,6.61c0.41,3.32,0.29,6.66,0.52,9.98
		c0.23,3.23,0.23,6.46,0.13,9.67c-0.11,3.53-0.28,7.05-0.48,10.58c-0.17,3.09-0.84,6.15-1.12,9.23c-0.29,3.25-0.92,6.44-1.44,9.65
		c-1.03,6.33-2.59,12.54-4.24,18.73c-1.26,4.74-2.98,9.34-4.64,13.95c-0.68-0.16-1.03-0.74-1.47-1.18
		c-21.25-21.24-42.49-42.48-63.74-63.73c-0.57-0.57-1.11-1.15-1.88-1.45c-0.55-0.4-1-0.92-1.48-1.4
		c-18.82-18.82-37.63-37.65-56.47-56.45c-6.22-6.21-12.41-12.44-18.62-18.66c-5.62-5.62-11.84-10.42-19.2-13.48
		c-5.21-2.16-10.64-3.65-16.32-4.09c-2.59-0.2-5.17-0.28-7.76-0.22c-4.35,0.09-8.57,0.94-12.74,2.04c-3.88,1.02-7.56,2.6-11.09,4.48
		c-3.64,1.94-6.93,4.4-10.08,7.07c-4.53,3.85-8.1,8.49-11.25,13.46c-1.47,2.32-2.56,4.89-3.61,7.43c-1.75,4.23-2.86,8.67-3.46,13.19
		c-0.52,3.94-0.6,7.92-0.24,11.93c0.47,5.22,1.69,10.23,3.41,15.14c1.12,3.18,2.66,6.14,4.45,9c2.13,3.4,4.61,6.52,7.31,9.46
		c0.63,0.69,0.68,1.26,0.11,1.99c-0.79,1.01-1.71,1.9-2.53,2.88c-4.28,5.1-7.55,10.76-9.82,17.02c-1.33,3.67-2.18,7.46-2.69,11.29
		c-0.51,3.82-0.54,7.68-0.25,11.57c0.39,5.32,1.73,10.38,3.47,15.37c1.06,3.03,2.54,5.87,4.19,8.6c2.66,4.4,5.94,8.3,9.65,11.86
		c0.77,0.74,1.82,1.2,2.25,2.27c-0.03,0.77,0.5,1.22,0.98,1.7c4.35,4.35,8.7,8.7,13.05,13.05c27.8,27.8,55.59,55.59,83.38,83.4
		C361.61,564.35,362.31,564.68,362.26,565.5z"/>
	<linearGradient id="SVGID_1_" gradientUnits="userSpaceOnUse" x1="365.1709" y1="449.2693" x2="426.8606" y2="517.4189">
		<stop  offset="5.586592e-03" style="stop-color:#14A0B7"/>
		<stop  offset="0.3827" style="stop-color:#0DB8C2"/>
		<stop  offset="1" style="stop-color:#00E6D9"/>
	</linearGradient>
	<path class="st1" d="M416.73,383.93c0.69-0.13,0.99,0.43,1.37,0.81c10.93,10.93,21.86,21.86,32.79,32.79
		c10.62,10.62,21.24,21.24,31.86,31.86c0.31,0.31,0.58,0.65,0.87,0.98c-1.53,3.76-2.94,7.56-4.61,11.26
		c-3.59,7.96-7.58,15.71-12.32,23.06c-2.95,4.57-5.84,9.17-9.09,13.53c-2.42,3.25-5.06,6.33-7.68,9.42
		c-2.46,2.9-5.11,5.64-7.67,8.45c-3.38,3.7-7.04,7.13-10.8,10.4c-5.05,4.4-10.3,8.58-15.79,12.46c-5.25,3.7-10.63,7.21-16.19,10.38
		c-5.74,3.27-11.68,6.17-17.73,8.88c-6.07,2.72-12.36,4.8-18.55,7.16c-0.29,0.11-0.62,0.09-0.93,0.14
		c-0.35-0.38-0.68-0.78-1.05-1.15c-32.3-32.31-64.61-64.62-96.9-96.94c-0.36-0.36-1.31-0.62-0.65-1.49
		c0.46-0.28,0.75,0.07,1.05,0.31c5.85,4.68,12.37,8.09,19.6,10.03c3.89,1.05,7.86,1.67,11.92,1.9c5.36,0.31,10.59-0.29,15.78-1.47
		c5.54-1.26,10.7-3.46,15.56-6.39c4.93-2.97,9.18-6.78,13.22-10.83c24.79-24.77,49.56-49.56,74.35-74.33
		C415.62,384.68,415.98,384.04,416.73,383.93z"/>
	<path class="st2" d="M416.73,383.93c-19.45,19.44-38.9,38.88-58.35,58.31c-6.22,6.22-12.46,12.41-18.65,18.66
		c-5.59,5.64-11.88,10.27-19.2,13.38c-4.2,1.78-8.59,2.98-13.11,3.66c-6.89,1.04-13.73,0.78-20.55-0.75
		c-7.59-1.7-14.43-4.93-20.72-9.45c-0.83-0.6-1.41-1.54-2.48-1.82c-2.78-2.58-5.49-5.23-7.9-8.17c-1.85-2.26-3.44-4.7-4.91-7.21
		c-3.66-6.26-5.8-13.09-6.77-20.22c-0.52-3.85-0.56-7.77-0.22-11.69c0.46-5.4,1.69-10.59,3.58-15.63c1.58-4.22,3.88-8.08,6.4-11.82
		c1.6-2.37,3.6-4.37,5.45-6.51c0.52-0.6,0.45-0.92-0.05-1.46c-4.66-4.94-8.51-10.45-11.18-16.71c-1.7-3.99-2.86-8.17-3.6-12.45
		c-0.8-4.66-0.94-9.32-0.57-14.04c0.64-8.2,3.05-15.87,7.11-22.94c3.17-5.52,7.22-10.4,12.14-14.53c4.47-3.76,9.34-6.83,14.71-9.05
		c3.81-1.58,7.8-2.69,11.9-3.37c4.7-0.78,9.4-0.9,14.16-0.55c5.61,0.41,11.01,1.75,16.17,3.83c5.33,2.15,10.26,5.13,14.64,8.92
		c6.84,5.92,12.94,12.59,19.34,18.96c10.57,10.51,21.12,21.05,31.67,31.59c10.04,10.03,20.07,20.07,30.1,30.1
		C416.15,383.27,416.43,383.61,416.73,383.93z"/>
</g>
</svg>
